<svg width="1001" height="1001" viewBox="0 0 1001 1001" fill="none" xmlns="http://www.w3.org/2000/svg">
<path d="M183.46 190.523C183.79 190.133 184.18 189.773 184.54 189.403C255.02 119.403 368.91 110.403 459.85 138.963C504.31 152.913 539.19 192.113 580.99 211.563C594.9 218.013 609.56 222.263 625.59 222.703C667.53 223.853 706.7 196.123 748.53 199.313C801.93 203.313 833.38 257.313 840.98 305.313C853.52 384.683 817.2 470.803 771.98 534.213C747.16 569.053 719.23 601.213 692.43 634.453C671.64 660.323 657.94 699.453 685.43 726.333C721.93 762.003 733.16 683.063 776.19 701.083C883.32 745.933 871.1 842.083 846.78 883.243C824.58 920.893 781.78 946.153 738.14 949.723C731.211 950.293 724.248 950.293 717.32 949.723" stroke="#9C542A" stroke-opacity="0.31" stroke-width="5.4" stroke-miterlimit="10"/>
<path d="M376.55 691.563C376.55 691.673 376.55 691.783 376.55 691.893C376.55 699.243 409.09 727.273 413.99 732.463" stroke="#CCDDE2" stroke-width="5.4" stroke-miterlimit="10"/>
<path d="M275.297 949.363C265.427 949.693 256.097 949.653 247.237 949.293C144.697 936.703 67.568 732.463 188.217 670.463" stroke="#9C542A" stroke-opacity="0.31" stroke-width="5.4" stroke-miterlimit="10"/>
<path d="M391.598 420.053V213.123C391.591 207.129 389.206 201.382 384.967 197.144C380.729 192.905 374.983 190.521 368.988 190.513H79.9887C74.0032 190.534 68.2697 192.924 64.042 197.161C59.8144 201.398 57.4366 207.137 57.4287 213.123V623.413C57.4366 629.403 59.8226 635.145 64.0622 639.377C68.3018 643.61 74.0482 645.985 80.0387 645.983H369.038C371.842 646.002 374.622 645.469 377.218 644.413" stroke="black" stroke-width="5.4" stroke-linecap="round" stroke-linejoin="round"/>
<path d="M362.839 204.363H86.1893C75.9057 204.363 67.5693 212.7 67.5693 222.983V613.583C67.5693 623.867 75.9057 632.203 86.1893 632.203H362.839C373.123 632.203 381.459 623.867 381.459 613.583V222.983C381.459 212.7 373.123 204.363 362.839 204.363Z" fill="#9C542A"/>
<path d="M357.1 237.473H95.3598C90.218 237.473 86.0498 241.641 86.0498 246.783V308.263C86.0498 313.404 90.218 317.573 95.3598 317.573H357.1C362.241 317.573 366.41 313.404 366.41 308.263V246.783C366.41 241.641 362.241 237.473 357.1 237.473Z" fill="#7D4322"/>
<path d="M224.508 271.213C229.086 271.213 232.798 267.501 232.798 262.923C232.798 258.344 229.086 254.633 224.508 254.633C219.929 254.633 216.218 258.344 216.218 262.923C216.218 267.501 219.929 271.213 224.508 271.213Z" fill="#D7E8F0"/>
<path d="M201.367 300.413C201.303 297.333 201.854 294.272 202.989 291.408C204.123 288.543 205.818 285.934 207.973 283.734C210.129 281.533 212.702 279.784 215.542 278.591C218.382 277.397 221.431 276.782 224.512 276.782C227.593 276.782 230.642 277.397 233.482 278.591C236.322 279.784 238.895 281.533 241.051 283.734C243.206 285.934 244.901 288.543 246.035 291.408C247.17 294.272 247.721 297.333 247.657 300.413H201.367Z" fill="#D7E8F0"/>
<path d="M114.089 353.333H332.079" stroke="white" stroke-width="5.4" stroke-miterlimit="10"/>
<path d="M114.089 374.793H332.079" stroke="white" stroke-width="5.4" stroke-miterlimit="10"/>
<path d="M114.089 512.973H332.079" stroke="white" stroke-width="5.4" stroke-miterlimit="10"/>
<path d="M164.718 533.263H281.448" stroke="white" stroke-width="5.4" stroke-miterlimit="10"/>
<path d="M701.906 467.353C701.906 467.353 645.806 437.123 609.626 429.813C609.626 429.813 609.377 435.213 603.357 448.543C597.337 461.873 579.576 501.263 579.576 501.263L552.917 481.013L553.316 511.203L480.176 589.323L433.946 488.123L440.106 459.653L413.766 469.743L399.696 419.543C399.696 419.543 330.337 435.143 270.597 483.213C210.857 531.283 193.747 606.213 188.197 670.463C182.647 734.713 189.316 802.463 274.196 825.353C274.196 825.353 314.076 835.353 346.546 821.973C356.666 817.793 371.367 813.893 386.787 810.473L386.287 810.653C386.287 810.653 379.287 834.943 359.007 848.163C359.007 848.163 394.536 875.163 455.246 886.933C515.956 898.703 644.246 905.743 708.906 849.643C773.566 793.543 776.206 701.053 776.206 701.053C776.206 701.053 797.206 522.483 701.906 467.353ZM369.696 625.173C367.495 625.1 365.364 624.382 363.567 623.107C361.771 621.832 360.388 620.056 359.593 618.002C358.798 615.947 358.626 613.704 359.096 611.552C359.566 609.4 360.659 607.434 362.238 605.898C363.818 604.362 365.813 603.325 367.977 602.915C370.142 602.505 372.38 602.741 374.412 603.593C376.443 604.445 378.179 605.876 379.403 607.708C380.628 609.539 381.285 611.69 381.296 613.893C381.244 616.924 379.994 619.811 377.821 621.924C375.648 624.037 372.727 625.205 369.696 625.173ZM616.227 728.123C614.527 736.763 605.416 791.423 582.896 797.843C560.376 804.263 538.146 790.303 485.616 795.753C485.616 795.753 474.296 796.183 458.616 797.583C425.866 759.213 458.836 704.523 458.836 704.523C458.836 704.523 533.276 681.853 568.766 698.213C604.256 714.573 617.957 719.463 616.227 728.123Z" fill="#9C542A"/>
<path d="M678.7 879.433V949.733C565.2 949.733 411.64 949.553 300.7 949.413C299.33 913.233 297.17 830.003 306.35 829.413C318.1 828.693 330.53 821.163 344.87 838.283C359.21 855.403 419.24 886.023 503.33 893.223C587.42 900.423 658.33 880.613 674.08 872.043C674.09 872.053 678.7 863.833 678.7 879.433Z" fill="#9C542A"/>
<path d="M512.88 460.613L494.7 481.043C494.103 481.523 493.416 481.876 492.679 482.082C491.942 482.288 491.172 482.342 490.413 482.241C489.655 482.14 488.925 481.886 488.268 481.494C487.61 481.103 487.04 480.582 486.59 479.963L473.8 452.443L498.7 432.653L512.88 460.613Z" fill="#7D4322"/>
<path d="M501.347 473.553L509.057 504.523L486.557 533.093L469.757 495.833L482.207 470.593" fill="#7D4322"/>
<path d="M577.93 251.713C573.93 252.613 570.43 255.713 567.76 259.023C565.277 262.127 563.176 265.518 561.5 269.123C561.5 269.123 553.06 233.123 549.5 201.893C548.31 191.733 544.75 186.293 540.42 183.553C531.49 177.893 519.42 183.943 519.42 183.943L479.32 205.783C471.626 210.022 463.158 212.668 454.42 213.563C450.337 214.033 446.213 214.033 442.13 213.563C420.04 202.643 419.72 159.563 446.56 159.263C447.367 160.017 448.125 160.822 448.83 161.673C448.443 160.88 448.083 160.089 447.75 159.303C449.251 159.348 450.746 159.516 452.22 159.803C454.42 160.233 456.47 162.503 457.84 164.093C450.71 150.253 458.31 132.813 472.36 127.523C480.9 124.313 490.45 124.923 499.36 126.803C500.77 127.083 502.17 127.413 503.58 127.803C525.92 134.543 545.48 146.253 559.93 165.803C578.22 190.533 582.79 221.843 577.93 251.713Z" fill="#2E2E2E"/>
<path d="M323.238 625.733C298.768 734.733 392.698 716.473 514.758 694.983C558.368 687.313 595.478 706.243 616.978 723.903" stroke="black" stroke-width="5.4" stroke-linejoin="round"/>
<path d="M399.7 419.533C344.23 433.183 278.79 466.293 242.79 511.233C195.66 569.983 185.79 648.103 186.86 721.233C187.86 792.683 262.73 842.033 330.69 826.593" stroke="black" stroke-width="5.4" stroke-linejoin="round"/>
<path d="M428.429 392.843H428.469" stroke="black" stroke-width="5.4" stroke-linejoin="round"/>
<path d="M622.98 629.753C622.98 629.753 624.98 677.043 616.98 723.903C613.35 745.293 607.64 766.593 598.73 783.273C596.338 787.679 592.822 791.374 588.54 793.982C584.258 796.59 579.362 798.019 574.35 798.123C565.213 798.289 556.074 797.925 546.98 797.033C468.6 789.673 395.14 805.823 341.57 823.573C337.97 824.753 334.35 825.753 330.71 826.573C364.5 857.233 451.43 913.913 615.79 889.333C836.79 856.333 767.72 564.503 767.72 564.503C761.72 533.063 742.98 503.873 720.45 481.763C694.93 456.763 645.45 440.233 611.81 429.763" stroke="black" stroke-width="5.4" stroke-linejoin="round"/>
<path d="M493.599 374.823C493.599 374.823 426.359 362.823 435.369 283.523C439.369 248.243 447.079 226.663 454.369 213.523" stroke="black" stroke-width="5.4" stroke-linejoin="round"/>
<path d="M557.278 353.963C569.698 335.403 567.798 310.763 571.698 304.563C577.698 294.943 601.698 264.933 587.298 254.123C583.978 251.633 580.808 251.123 577.928 251.703C568.238 253.863 561.498 269.113 561.498 269.113C561.498 269.113 553.068 233.113 549.498 201.873C545.928 170.633 519.408 183.933 519.408 183.933L479.308 205.763C471.618 210.011 463.148 212.661 454.408 213.553C449.835 214.092 445.212 214.055 440.648 213.443C409.648 209.443 407.648 150.753 443.208 157.443C445.408 157.873 447.458 160.143 448.828 161.733C441.688 147.893 449.298 130.453 463.348 125.163C471.888 121.953 481.438 122.563 490.348 124.443C518.168 130.313 542.698 142.443 559.928 165.803C578.228 190.553 582.808 221.863 577.928 251.733" stroke="black" stroke-width="5.4" stroke-linejoin="round"/>
<path d="M485.198 300.343H470.788L471.728 288.923L475.578 242.693" stroke="black" stroke-width="5.4" stroke-linejoin="round"/>
<path d="M471.698 288.923H432.118C429.312 288.923 426.621 287.808 424.637 285.824C422.653 283.84 421.538 281.149 421.538 278.343V242.703H488.438V278.343C488.44 281.15 489.557 283.841 491.543 285.825C493.529 287.809 496.221 288.923 499.028 288.923H538.278C541.085 288.923 543.777 287.809 545.763 285.825C547.748 283.841 548.865 281.15 548.868 278.343V242.703H488.438" stroke="black" stroke-width="5.4" stroke-linejoin="round"/>
<path d="M485.198 314.123C485.198 314.123 495.408 317.723 506.818 300.303" stroke="black" stroke-width="5.4" stroke-linejoin="round"/>
<path d="M479.769 592.823L554.289 510.123L552.929 481.003L578.699 503.213L611.809 429.803L611.899 429.613C603.803 424.842 596.248 419.206 589.369 412.803C586.203 409.83 583.203 406.723 580.369 403.483C577.026 399.688 573.908 395.701 571.029 391.543L568.699 388.253" stroke="black" stroke-width="5.4" stroke-linejoin="round"/>
<path d="M528.647 478.143L513.307 457.013L496.947 435.453L531.287 414.673L568.727 388.253L580.337 403.483L584.237 408.613L574.767 420.743L500.817 515.663V515.703L486.827 533.093" stroke="black" stroke-width="5.4" stroke-linejoin="round"/>
<path d="M456.93 466.123L496.93 435.483L447.79 386.373L429.17 403.933L486.82 533.123L479.77 592.833L433.96 488.123L440.09 459.663L413.75 469.723L398.46 420.053C416.033 413.271 431.923 402.752 445.03 389.223L447.81 386.343" stroke="black" stroke-width="5.4" stroke-linejoin="round"/>
<path d="M513.308 460.613L495.098 481.043C494.503 481.522 493.816 481.876 493.08 482.081C492.344 482.287 491.574 482.341 490.816 482.24C490.059 482.139 489.33 481.885 488.673 481.494C488.017 481.102 487.447 480.582 486.998 479.963L474.198 452.443" stroke="black" stroke-width="5.4" stroke-linejoin="round"/>
<path d="M501.776 473.553L509.496 504.523" stroke="black" stroke-width="5.4" stroke-linejoin="round"/>
<path d="M482.637 470.593L470.187 495.833" stroke="black" stroke-width="5.4" stroke-linejoin="round"/>
<path d="M568.696 388.253L557.276 353.923C554.168 358.279 550.161 361.918 545.526 364.593" stroke="black" stroke-width="5.4" stroke-linejoin="round"/>
<path d="M455.658 353.923L447.808 386.343" stroke="black" stroke-width="5.4" stroke-linejoin="round"/>
<path d="M509.939 271.523C512.844 271.523 515.199 269.168 515.199 266.263C515.199 263.358 512.844 261.003 509.939 261.003C507.034 261.003 504.679 263.358 504.679 266.263C504.679 269.168 507.034 271.523 509.939 271.523Z" fill="black"/>
<path d="M464.068 271.523C466.973 271.523 469.328 269.168 469.328 266.263C469.328 263.358 466.973 261.003 464.068 261.003C461.163 261.003 458.808 263.358 458.808 266.263C458.808 269.168 461.163 271.523 464.068 271.523Z" fill="black"/>
<path d="M678.737 949.733V869.703V867.653" stroke="black" stroke-width="5.4" stroke-linejoin="round"/>
<path d="M301.39 949.443V829.353V829.313" stroke="black" stroke-width="5.4" stroke-linejoin="round"/>
<path d="M157.917 949.193C157.917 949.193 217.257 949.303 300.707 949.413C411.707 949.553 565.237 949.733 678.707 949.733C766.187 949.733 829.817 949.553 831.707 949.193" stroke="black" stroke-width="5.4" stroke-linejoin="round"/>
<path d="M790.139 324.983C856.756 324.983 910.759 270.98 910.759 204.363C910.759 137.747 856.756 83.7432 790.139 83.7432C723.523 83.7432 669.519 137.747 669.519 204.363C669.519 270.98 723.523 324.983 790.139 324.983Z" fill="#3FBDF1"/>
<path d="M789.696 50.123C762.623 50.124 736.026 57.2513 712.58 70.7887C689.133 84.326 669.663 103.796 656.126 127.243C642.585 150.687 635.456 177.284 635.456 204.358C635.456 231.432 642.585 258.029 656.126 281.473C669.663 304.92 689.133 324.39 712.58 337.927C736.026 351.465 762.623 358.592 789.696 358.593C816.77 358.592 843.367 351.465 866.813 337.927C890.26 324.39 909.73 304.92 923.266 281.473C936.803 258.027 943.929 231.431 943.929 204.358C943.929 177.285 936.803 150.689 923.266 127.243C909.73 103.796 890.26 84.326 866.813 70.7887C843.367 57.2513 816.77 50.124 789.696 50.123Z" fill="#9C542A"/>
<path d="M839.678 477.643C863.553 477.643 882.908 458.288 882.908 434.413C882.908 410.537 863.553 391.183 839.678 391.183C815.803 391.183 796.448 410.537 796.448 434.413C796.448 458.288 815.803 477.643 839.678 477.643Z" fill="#9C542A" fill-opacity="0.47"/>
<path d="M825.768 436.883C833.45 436.883 839.678 430.656 839.678 422.973C839.678 415.291 833.45 409.063 825.768 409.063C818.086 409.063 811.858 415.291 811.858 422.973C811.858 430.656 818.086 436.883 825.768 436.883Z" fill="white"/>
<path d="M146.487 870.393C170.362 870.393 189.717 851.038 189.717 827.163C189.717 803.287 170.362 783.933 146.487 783.933C122.611 783.933 103.257 803.287 103.257 827.163C103.257 851.038 122.611 870.393 146.487 870.393Z" fill="#9C542A" fill-opacity="0.47"/>
<path d="M705.867 418.013C717.801 418.013 727.477 408.338 727.477 396.403C727.477 384.468 717.801 374.793 705.867 374.793C693.932 374.793 684.257 384.468 684.257 396.403C684.257 408.338 693.932 418.013 705.867 418.013Z" fill="#9C542A" fill-opacity="0.47"/>
<path d="M135.589 828.793C143.272 828.793 149.499 822.565 149.499 814.883C149.499 807.2 143.272 800.973 135.589 800.973C127.907 800.973 121.679 807.2 121.679 814.883C121.679 822.565 127.907 828.793 135.589 828.793Z" fill="white"/>
<path d="M861.718 858.113C873.653 858.113 883.328 848.437 883.328 836.503C883.328 824.568 873.653 814.893 861.718 814.893C849.783 814.893 840.108 824.568 840.108 836.503C840.108 848.437 849.783 858.113 861.718 858.113Z" fill="#9C542A" fill-opacity="0.47"/>
<path d="M698.168 398.893C702.421 398.893 705.868 395.446 705.868 391.193C705.868 386.941 702.421 383.493 698.168 383.493C693.916 383.493 690.469 386.941 690.469 391.193C690.469 395.446 693.916 398.893 698.168 398.893Z" fill="white"/>
<path d="M852.728 837.403C855.694 837.403 858.098 834.999 858.098 832.033C858.098 829.067 855.694 826.663 852.728 826.663C849.762 826.663 847.358 829.067 847.358 832.033C847.358 834.999 849.762 837.403 852.728 837.403Z" fill="white"/>
<path d="M352.32 146.393C364.255 146.393 373.93 136.718 373.93 124.783C373.93 112.848 364.255 103.173 352.32 103.173C340.385 103.173 330.71 112.848 330.71 124.783C330.71 136.718 340.385 146.393 352.32 146.393Z" fill="#9C542A" fill-opacity="0.47"/>
<path d="M349.039 130.563C353.291 130.563 356.739 127.116 356.739 122.863C356.739 118.61 353.291 115.163 349.039 115.163C344.786 115.163 341.339 118.61 341.339 122.863C341.339 127.116 344.786 130.563 349.039 130.563Z" fill="white"/>
<path d="M796.457 726.583C840.662 726.583 876.497 690.748 876.497 646.543C876.497 602.338 840.662 566.503 796.457 566.503C752.252 566.503 716.417 602.338 716.417 646.543C716.417 690.748 752.252 726.583 796.457 726.583Z" fill="white"/>
<path d="M796.459 708.183C830.502 708.183 858.099 680.586 858.099 646.543C858.099 612.5 830.502 584.903 796.459 584.903C762.416 584.903 734.819 612.5 734.819 646.543C734.819 680.586 762.416 708.183 796.459 708.183Z" fill="#9C542A"/>
<path d="M795.699 634.063C794.969 630.483 802.299 624.563 804.749 623.273C813.689 618.593 827.419 622.123 832.319 631.063C843.539 651.563 811.989 680.793 795.709 688.003C793.829 686.503 749.259 653.163 759.709 631.823C770.159 610.483 793.119 621.333 795.699 634.063Z" fill="white"/>
<path d="M889 155.684C889 159.095 887.802 161.996 885.405 164.384L792.453 257.017L774.992 274.418C772.596 276.806 769.686 278 766.262 278C762.838 278 759.928 276.806 757.532 274.418L740.071 257.017L693.595 210.7C691.198 208.312 690 205.412 690 202C690 198.588 691.198 195.688 693.595 193.3L711.055 175.899C713.452 173.511 716.362 172.316 719.786 172.316C723.209 172.316 726.12 173.511 728.516 175.899L766.262 213.643L850.484 129.582C852.88 127.194 855.791 126 859.214 126C862.638 126 865.548 127.194 867.945 129.582L885.405 146.983C887.802 149.371 889 152.272 889 155.684Z" fill="white"/>
</svg>
